<svg xmlns="http://www.w3.org/2000/svg" viewBox="0 0 500 350" fill="none">
  <rect width="500" height="350" fill="#f8f9fa"/>
  <!-- Search interface mockup -->
  <rect x="60" y="40" width="380" height="60" rx="30" fill="#fff" stroke="#e8eaed" stroke-width="1"/>
  <circle cx="100" cy="70" r="10" fill="#4285F4"/>
  <rect x="130" y="62" width="150" height="6" rx="3" fill="#e8eaed"/>
  <rect x="380" y="55" width="40" height="30" rx="4" fill="#4285F4"/>
  <!-- Result cards -->
  <rect x="60" y="130" width="380" height="70" rx="8" fill="#fff" stroke="#e8eaed" stroke-width="1"/>
  <circle cx="105" cy="165" r="18" fill="#4285F4" opacity="0.2"/>
  <rect x="135" y="148" width="120" height="8" rx="4" fill="#202124"/>
  <rect x="135" y="162" width="200" height="6" rx="3" fill="#5f6368"/>
  <rect x="60" y="215" width="380" height="70" rx="8" fill="#fff" stroke="#e8eaed" stroke-width="1"/>
  <circle cx="105" cy="250" r="18" fill="#34A853" opacity="0.2"/>
  <rect x="135" y="233" width="100" height="8" rx="4" fill="#202124"/>
  <rect x="135" y="247" width="180" height="6" rx="3" fill="#5f6368"/>
  <rect x="60" y="300" width="380" height="70" rx="8" fill="#fff" stroke="#e8eaed" stroke-width="1"/>
  <circle cx="105" cy="335" r="18" fill="#FBBC05" opacity="0.2"/>
  <rect x="135" y="318" width="110" height="8" rx="4" fill="#202124"/>
  <rect x="135" y="332" width="190" height="6" rx="3" fill="#5f6368"/>
</svg>
