<svg xmlns="http://www.w3.org/2000/svg" viewBox="0 0 500 350" fill="none">
  <rect width="500" height="350" fill="#f8f9fa"/>
  <rect x="50" y="50" width="150" height="120" rx="8" fill="#fff" stroke="#e8eaed" stroke-width="1"/>
  <circle cx="125" cy="95" r="25" fill="#4285F4" opacity="0.2"/>
  <rect x="95" y="130" width="60" height="8" rx="4" fill="#e8eaed"/>
  <rect x="95" y="145" width="45" height="6" rx="3" fill="#f1f3f4"/>
  <rect x="175" y="50" width="130" height="120" rx="8" fill="#fff" stroke="#e8eaed" stroke-width="1"/>
  <circle cx="240" cy="95" r="25" fill="#34A853" opacity="0.2"/>
  <rect x="210" y="130" width="60" height="8" rx="4" fill="#e8eaed"/>
  <rect x="210" y="145" width="50" height="6" rx="3" fill="#f1f3f4"/>
  <rect x="320" y="50" width="130" height="120" rx="8" fill="#fff" stroke="#e8eaed" stroke-width="1"/>
  <circle cx="385" cy="95" r="25" fill="#FBBC05" opacity="0.2"/>
  <rect x="355" y="130" width="60" height="8" rx="4" fill="#e8eaed"/>
  <rect x="355" y="145" width="55" height="6" rx="3" fill="#f1f3f4"/>
  <rect x="150" y="200" width="200" height="100" rx="8" fill="#fff" stroke="#e8eaed" stroke-width="1"/>
  <rect x="180" y="220" width="140" height="8" rx="4" fill="#4285F4"/>
  <rect x="180" y="238" width="100" height="6" rx="3" fill="#e8eaed"/>
  <rect x="180" y="256" width="120" height="6" rx="3" fill="#e8eaed"/>
</svg>
